<?xml version="1.0" standalone="no"?>
<!DOCTYPE svg PUBLIC "-//W3C//DTD SVG 20010904//EN"
 "http://www.w3.org/TR/2001/REC-SVG-20010904/DTD/svg10.dtd">
<svg version="1.0" xmlns="http://www.w3.org/2000/svg"
 width="3122.000000pt" height="3122.000000pt" viewBox="0 0 3122.000000 3122.000000"
 preserveAspectRatio="xMidYMid meet">
<metadata>
Created by potrace 1.14, written by Peter Selinger 2001-2017
</metadata>
<g transform="translate(0.000000,3122.000000) scale(0.100000,-0.100000)"
fill="#000000" stroke="none">
<path d="M22807 27634 c-1 -1 -37 -5 -79 -9 -43 -3 -90 -9 -105 -11 -15 -3
-41 -7 -58 -8 -52 -6 -196 -37 -289 -63 -221 -61 -482 -176 -671 -295 -283
-178 -515 -393 -715 -663 -39 -51 -70 -96 -70 -98 0 -3 -18 -31 -39 -63 -104
-156 -263 -518 -296 -674 -1 -8 -8 -33 -13 -55 -16 -58 -40 -182 -48 -240 -3
-27 -7 -52 -9 -55 -15 -26 -23 -399 -11 -535 58 -655 342 -1232 826 -1680 359
-332 861 -575 1325 -641 22 -3 51 -7 65 -10 111 -18 428 -25 570 -11 428 43
816 179 1170 411 74 48 137 91 140 95 3 3 39 33 80 66 200 159 450 449 582
675 95 165 221 448 243 550 1 3 7 25 15 50 7 25 21 81 32 125 10 44 20 87 22
95 2 8 7 40 11 70 4 30 9 64 11 75 24 124 24 551 -1 683 -1 9 -6 37 -9 62 -98
656 -488 1283 -1042 1677 -328 233 -689 384 -1064 443 -41 6 -86 13 -100 16
-81 13 -463 27 -473 18z m348 -635 c33 -4 83 -10 110 -13 28 -4 95 -18 150
-32 419 -107 779 -336 1052 -669 58 -72 183 -267 225 -355 96 -198 162 -414
184 -605 3 -33 8 -69 11 -80 5 -29 4 -290 -2 -355 -31 -314 -154 -652 -331
-907 -196 -282 -439 -492 -745 -644 -214 -107 -457 -174 -699 -194 -116 -10
-336 -5 -410 10 -13 2 -40 7 -60 10 -248 37 -532 149 -755 299 -268 179 -514
457 -658 742 -78 155 -156 391 -174 524 -2 19 -6 41 -9 49 -25 76 -25 472 1
601 2 14 7 36 10 50 2 14 7 36 9 50 3 14 12 52 21 85 146 545 519 1000 1020
1245 164 80 361 146 491 165 21 3 45 8 52 10 7 3 46 8 85 11 40 3 73 7 75 9 7
7 290 2 347 -6z"/>
<path d="M21950 25108 l0 -1368 260 0 260 0 0 514 0 514 118 1 117 0 120 -175
c66 -96 136 -197 155 -224 19 -27 125 -180 234 -340 l199 -290 297 0 c277 0
297 1 296 18 -1 17 -16 40 -157 242 -44 63 -102 147 -128 185 -27 39 -79 114
-117 167 -38 53 -105 149 -149 213 -44 63 -101 146 -127 182 -27 37 -48 74
-48 83 0 10 25 26 64 43 272 119 486 385 512 636 29 281 -53 532 -231 706 -87
85 -138 122 -235 167 -60 28 -170 66 -210 72 -14 3 -45 8 -70 12 -25 4 -296 8
-602 8 l-558 1 0 -1367z m1142 870 c110 -38 200 -130 234 -240 53 -177 -13
-352 -166 -440 -81 -47 -116 -52 -412 -54 l-278 -2 0 379 0 380 281 -1 c254
-2 286 -4 341 -22z"/>
<path d="M5715 25070 c-2 -3 -3 -4837 -3 -10742 l0 -10737 2867 3 c1576 2
2925 6 2996 9 200 9 433 19 505 22 36 2 119 6 185 9 66 4 161 9 210 11 94 5
186 11 295 20 36 3 94 8 130 10 103 8 182 15 220 20 19 2 68 7 109 11 41 3 82
7 90 9 9 1 54 6 101 10 47 4 87 8 90 10 3 1 37 6 75 10 39 4 84 9 100 11 17 3
42 6 56 8 77 9 145 18 159 21 8 1 37 6 63 9 27 4 56 9 65 11 10 1 37 6 62 9
80 11 366 58 460 76 30 6 71 13 90 16 74 12 514 106 650 140 58 14 112 27 122
29 142 30 638 175 913 267 161 53 468 165 520 188 11 5 49 21 85 36 336 136
891 407 1075 525 17 10 39 23 50 29 90 44 609 384 688 450 7 6 72 55 145 110
112 84 385 301 402 320 3 3 64 57 135 120 231 203 562 531 750 744 39 43 82
90 96 105 91 93 455 548 609 762 107 149 280 405 360 534 218 352 365 615 530
950 160 324 243 507 340 750 17 44 40 100 50 125 98 240 292 812 354 1040 8
30 26 98 41 150 15 52 28 102 30 110 2 8 20 80 40 160 37 144 41 164 49 198 8
33 68 317 72 337 2 11 6 31 9 45 2 14 7 38 9 54 3 16 10 52 15 80 6 28 13 67
16 86 3 19 16 105 30 190 25 158 31 201 40 280 3 25 7 59 10 75 2 17 7 57 10
90 3 33 8 76 10 95 3 19 8 67 11 105 3 39 8 84 9 100 2 17 6 73 10 125 4 52 9
111 10 130 25 289 25 1128 0 1490 -8 105 -15 202 -19 250 -3 25 -7 77 -11 115
-3 39 -8 86 -10 105 -2 19 -6 60 -10 90 -3 30 -7 66 -9 80 -3 14 -7 52 -11 85
-3 33 -8 71 -10 85 -2 14 -6 41 -9 60 -16 117 -50 326 -67 425 -6 33 -13 74
-16 90 -19 115 -109 529 -158 725 -9 36 -18 73 -20 83 -2 10 -7 27 -10 37 -3
10 -7 27 -9 37 -7 33 -117 416 -148 513 -81 255 -156 472 -241 695 -61 159
-80 205 -112 280 -7 17 -31 74 -54 127 -23 54 -48 110 -56 125 -8 16 -15 31
-15 34 0 29 -306 639 -440 879 -129 231 -324 555 -360 597 -5 7 -10 14 -10 17
0 6 -210 319 -219 326 -3 3 -19 25 -35 49 -25 39 -273 371 -318 426 -364 446
-582 686 -899 990 -193 184 -286 266 -454 400 -38 30 -77 61 -85 68 -52 47
-374 277 -565 404 -396 263 -802 492 -1141 642 -49 21 -114 50 -144 64 -66 30
-361 153 -410 171 -19 7 -116 43 -215 81 -178 67 -549 193 -649 220 -28 8
-123 35 -211 60 -88 25 -169 47 -180 50 -11 2 -74 18 -140 35 -96 25 -278 68
-450 106 -59 13 -172 37 -235 49 -14 3 -36 7 -50 10 -14 3 -36 7 -50 10 -14 3
-59 11 -100 20 -41 8 -91 17 -110 20 -19 3 -46 8 -60 10 -44 9 -74 15 -130 25
-52 9 -82 14 -155 26 -16 2 -55 9 -85 14 -53 9 -86 14 -167 25 -21 3 -49 8
-63 10 -14 3 -47 7 -75 10 -27 3 -61 8 -75 10 -25 4 -36 6 -185 24 -158 20
-269 32 -410 46 -27 2 -77 7 -110 11 -33 4 -76 8 -95 9 -19 1 -78 6 -130 10
-52 4 -113 9 -135 10 -22 2 -76 6 -120 9 -44 3 -120 8 -170 11 -49 3 -119 7
-155 10 -84 6 -270 14 -435 20 -71 2 -209 7 -305 11 -205 8 -5690 12 -5695 4z"/>
</g>
</svg>
